<mxfile host="app.diagrams.net" modified="2023-10-04T15:27:49.211Z" agent="Mozilla/5.0 (Windows NT 10.0; Win64; x64) AppleWebKit/537.36 (KHTML, like Gecko) Chrome/117.0.0.0 Safari/537.36" etag="JIeFYJCIGhtg7dysrr23" version="22.0.2" type="github">
  <diagram name="Page-1" id="38b20595-45e3-9b7f-d5ca-b57f44c5b66d">
    <mxGraphModel dx="2049" dy="1129" grid="1" gridSize="10" guides="1" tooltips="1" connect="1" arrows="1" fold="1" page="1" pageScale="1" pageWidth="1654" pageHeight="1169" background="none" math="0" shadow="0">
      <root>
        <mxCell id="0" />
        <mxCell id="1" parent="0" />
        <mxCell id="3EE64F8RbACrC_pB3BYP-18" value="" style="verticalLabelPosition=bottom;html=1;verticalAlign=top;align=center;shape=mxgraph.floorplan.wall;fillColor=strokeColor;direction=south;" vertex="1" parent="1">
          <mxGeometry x="570" y="120" width="10" height="390" as="geometry" />
        </mxCell>
        <mxCell id="3EE64F8RbACrC_pB3BYP-27" value="" style="verticalLabelPosition=bottom;html=1;verticalAlign=top;align=center;shape=mxgraph.floorplan.wall;fillColor=strokeColor;" vertex="1" parent="1">
          <mxGeometry x="660" y="113" width="380" height="10" as="geometry" />
        </mxCell>
        <mxCell id="3EE64F8RbACrC_pB3BYP-19" value="" style="verticalLabelPosition=bottom;html=1;verticalAlign=top;align=center;shape=mxgraph.floorplan.wall;fillColor=strokeColor;" vertex="1" parent="1">
          <mxGeometry x="10" y="500" width="560" height="10" as="geometry" />
        </mxCell>
        <mxCell id="3EE64F8RbACrC_pB3BYP-3" value="" style="verticalLabelPosition=bottom;html=1;verticalAlign=top;align=center;shape=mxgraph.floorplan.wall;fillColor=strokeColor;" vertex="1" parent="1">
          <mxGeometry x="283" y="110" width="207" height="10" as="geometry" />
        </mxCell>
        <mxCell id="3EE64F8RbACrC_pB3BYP-5" value="" style="verticalLabelPosition=bottom;html=1;verticalAlign=top;align=center;shape=mxgraph.floorplan.wall;fillColor=strokeColor;direction=south;" vertex="1" parent="1">
          <mxGeometry x="180" y="94" width="10" height="16" as="geometry" />
        </mxCell>
        <mxCell id="3EE64F8RbACrC_pB3BYP-7" value="" style="verticalLabelPosition=bottom;html=1;verticalAlign=top;align=center;shape=mxgraph.floorplan.doorRight;aspect=fixed;rotation=-90;" vertex="1" parent="1">
          <mxGeometry x="187" y="11" width="80" height="85" as="geometry" />
        </mxCell>
        <mxCell id="3EE64F8RbACrC_pB3BYP-8" value="PUERTA&lt;br&gt;" style="verticalLabelPosition=bottom;html=1;verticalAlign=top;align=center;shape=mxgraph.floorplan.doorRight;aspect=fixed;" vertex="1" parent="1">
          <mxGeometry x="203" y="113" width="80" height="85" as="geometry" />
        </mxCell>
        <mxCell id="3EE64F8RbACrC_pB3BYP-9" value="" style="verticalLabelPosition=bottom;html=1;verticalAlign=top;align=center;shape=mxgraph.floorplan.wall;fillColor=strokeColor;direction=south;" vertex="1" parent="1">
          <mxGeometry x="283" y="120" width="10" height="390" as="geometry" />
        </mxCell>
        <mxCell id="3EE64F8RbACrC_pB3BYP-10" value="PUERTA" style="verticalLabelPosition=bottom;html=1;verticalAlign=top;align=center;shape=mxgraph.floorplan.doorRight;aspect=fixed;" vertex="1" parent="1">
          <mxGeometry x="490" y="113" width="80" height="85" as="geometry" />
        </mxCell>
        <mxCell id="3EE64F8RbACrC_pB3BYP-11" value="" style="verticalLabelPosition=bottom;html=1;verticalAlign=top;align=center;shape=mxgraph.floorplan.toilet;rotation=-90;" vertex="1" parent="1">
          <mxGeometry x="30" y="29" width="50" height="67" as="geometry" />
        </mxCell>
        <mxCell id="3EE64F8RbACrC_pB3BYP-12" value="" style="verticalLabelPosition=bottom;html=1;verticalAlign=top;align=center;shape=mxgraph.floorplan.sink_22;" vertex="1" parent="1">
          <mxGeometry x="120" y="12.5" width="40" height="35" as="geometry" />
        </mxCell>
        <mxCell id="3EE64F8RbACrC_pB3BYP-15" value="" style="verticalLabelPosition=bottom;html=1;verticalAlign=top;align=center;shape=mxgraph.floorplan.window;" vertex="1" parent="1">
          <mxGeometry x="368" y="500" width="120" height="10" as="geometry" />
        </mxCell>
        <mxCell id="3EE64F8RbACrC_pB3BYP-16" value="" style="verticalLabelPosition=bottom;html=1;verticalAlign=top;align=center;shape=mxgraph.floorplan.window;rotation=-90;" vertex="1" parent="1">
          <mxGeometry x="506.25" y="402.25" width="137.5" height="10" as="geometry" />
        </mxCell>
        <mxCell id="3EE64F8RbACrC_pB3BYP-14" value="" style="verticalLabelPosition=bottom;html=1;verticalAlign=top;align=center;shape=mxgraph.floorplan.window;" vertex="1" parent="1">
          <mxGeometry x="80" y="500" width="120" height="10" as="geometry" />
        </mxCell>
        <mxCell id="3EE64F8RbACrC_pB3BYP-20" value="" style="verticalLabelPosition=bottom;html=1;verticalAlign=top;align=center;shape=mxgraph.floorplan.wall;fillColor=strokeColor;direction=south;" vertex="1" parent="1">
          <mxGeometry x="10" y="120" width="10" height="380" as="geometry" />
        </mxCell>
        <mxCell id="3EE64F8RbACrC_pB3BYP-21" value="" style="verticalLabelPosition=bottom;html=1;verticalAlign=top;align=center;shape=mxgraph.floorplan.wall;fillColor=strokeColor;direction=south;" vertex="1" parent="1">
          <mxGeometry x="10" y="13" width="10" height="100" as="geometry" />
        </mxCell>
        <mxCell id="3EE64F8RbACrC_pB3BYP-22" value="" style="verticalLabelPosition=bottom;html=1;verticalAlign=top;align=center;shape=mxgraph.floorplan.wall;fillColor=strokeColor;" vertex="1" parent="1">
          <mxGeometry x="10" y="3" width="1040" height="10" as="geometry" />
        </mxCell>
        <mxCell id="3EE64F8RbACrC_pB3BYP-23" value="" style="verticalLabelPosition=bottom;html=1;verticalAlign=top;align=center;shape=mxgraph.floorplan.stairs;" vertex="1" parent="1">
          <mxGeometry x="670" y="13" width="370" height="100" as="geometry" />
        </mxCell>
        <mxCell id="3EE64F8RbACrC_pB3BYP-24" value="" style="verticalLabelPosition=bottom;html=1;verticalAlign=top;align=center;shape=mxgraph.floorplan.wall;fillColor=strokeColor;" vertex="1" parent="1">
          <mxGeometry x="830" y="610" width="210" height="10" as="geometry" />
        </mxCell>
        <mxCell id="3EE64F8RbACrC_pB3BYP-25" value="" style="verticalLabelPosition=bottom;html=1;verticalAlign=top;align=center;shape=mxgraph.floorplan.wall;fillColor=strokeColor;direction=south;" vertex="1" parent="1">
          <mxGeometry x="1040" y="10" width="10" height="1000" as="geometry" />
        </mxCell>
        <mxCell id="3EE64F8RbACrC_pB3BYP-26" value="PUERTA" style="verticalLabelPosition=bottom;html=1;verticalAlign=top;align=center;shape=mxgraph.floorplan.doorLeft;aspect=fixed;" vertex="1" parent="1">
          <mxGeometry x="580" y="113" width="80" height="85" as="geometry" />
        </mxCell>
        <mxCell id="3EE64F8RbACrC_pB3BYP-28" value="" style="verticalLabelPosition=bottom;html=1;verticalAlign=top;align=center;shape=mxgraph.floorplan.window;rotation=90;" vertex="1" parent="1">
          <mxGeometry x="525" y="555" width="100" height="10" as="geometry" />
        </mxCell>
        <mxCell id="3EE64F8RbACrC_pB3BYP-29" value="" style="verticalLabelPosition=bottom;html=1;verticalAlign=top;align=center;shape=mxgraph.floorplan.wall;fillColor=strokeColor;" vertex="1" parent="1">
          <mxGeometry x="570" y="611" width="100" height="10" as="geometry" />
        </mxCell>
        <mxCell id="3EE64F8RbACrC_pB3BYP-30" value="" style="verticalLabelPosition=bottom;html=1;verticalAlign=top;align=center;shape=mxgraph.floorplan.wall;fillColor=strokeColor;" vertex="1" parent="1">
          <mxGeometry x="570" y="1010" width="480" height="10" as="geometry" />
        </mxCell>
        <mxCell id="3EE64F8RbACrC_pB3BYP-31" value="" style="verticalLabelPosition=bottom;html=1;verticalAlign=top;align=center;shape=mxgraph.floorplan.wall;fillColor=strokeColor;" vertex="1" parent="1">
          <mxGeometry x="10" y="110" width="192" height="10" as="geometry" />
        </mxCell>
        <mxCell id="3EE64F8RbACrC_pB3BYP-32" value="" style="verticalLabelPosition=bottom;html=1;verticalAlign=top;align=center;shape=mxgraph.floorplan.window;" vertex="1" parent="1">
          <mxGeometry x="670" y="611" width="160" height="10" as="geometry" />
        </mxCell>
        <mxCell id="3EE64F8RbACrC_pB3BYP-33" value="" style="verticalLabelPosition=bottom;html=1;verticalAlign=top;align=center;shape=mxgraph.floorplan.opening;rotation=90;" vertex="1" parent="1">
          <mxGeometry x="524.38" y="58.63" width="101.25" height="10" as="geometry" />
        </mxCell>
        <mxCell id="3EE64F8RbACrC_pB3BYP-34" value="" style="verticalLabelPosition=bottom;html=1;verticalAlign=top;align=center;shape=mxgraph.floorplan.window;rotation=90;" vertex="1" parent="1">
          <mxGeometry x="378.44" y="813.19" width="394.37" height="10" as="geometry" />
        </mxCell>
        <mxCell id="3EE64F8RbACrC_pB3BYP-36" value="ESTUDIO" style="text;strokeColor=none;fillColor=none;html=1;fontSize=38;fontStyle=1;verticalAlign=middle;align=center;" vertex="1" parent="1">
          <mxGeometry x="705" y="322.25" width="210" height="90" as="geometry" />
        </mxCell>
        <mxCell id="3EE64F8RbACrC_pB3BYP-37" value="HABITACION 1" style="text;strokeColor=none;fillColor=none;html=1;fontSize=33;fontStyle=1;verticalAlign=middle;align=center;" vertex="1" parent="1">
          <mxGeometry x="60" y="250" width="180" height="90" as="geometry" />
        </mxCell>
        <mxCell id="3EE64F8RbACrC_pB3BYP-38" value="HABITACION 2" style="text;strokeColor=none;fillColor=none;html=1;fontSize=33;fontStyle=1;verticalAlign=middle;align=center;" vertex="1" parent="1">
          <mxGeometry x="344.38" y="250" width="180" height="90" as="geometry" />
        </mxCell>
        <mxCell id="3EE64F8RbACrC_pB3BYP-39" value="BALCON" style="text;strokeColor=none;fillColor=none;html=1;fontSize=33;fontStyle=1;verticalAlign=middle;align=center;" vertex="1" parent="1">
          <mxGeometry x="640" y="760" width="180" height="90" as="geometry" />
        </mxCell>
        <mxCell id="3EE64F8RbACrC_pB3BYP-40" value="" style="verticalLabelPosition=bottom;html=1;verticalAlign=top;align=center;shape=mxgraph.floorplan.stairs;direction=south;rotation=-180;" vertex="1" parent="1">
          <mxGeometry x="940" y="621" width="100" height="300" as="geometry" />
        </mxCell>
        <mxCell id="3EE64F8RbACrC_pB3BYP-42" value="PASILLO" style="text;strokeColor=none;fillColor=none;html=1;fontSize=29;fontStyle=1;verticalAlign=middle;align=center;" vertex="1" parent="1">
          <mxGeometry x="378" y="42.5" width="100" height="40" as="geometry" />
        </mxCell>
        <mxCell id="3EE64F8RbACrC_pB3BYP-43" value="BAÑO" style="text;strokeColor=none;fillColor=none;html=1;fontSize=24;fontStyle=1;verticalAlign=middle;align=center;" vertex="1" parent="1">
          <mxGeometry x="90" y="58.629999999999995" width="100" height="40" as="geometry" />
        </mxCell>
        <mxCell id="3EE64F8RbACrC_pB3BYP-44" value="1.20X1.10m" style="shape=dimension;whiteSpace=wrap;html=1;align=center;points=[];verticalAlign=bottom;spacingBottom=3;labelBackgroundColor=none;fontSize=14;" vertex="1" parent="1">
          <mxGeometry x="368" y="505" width="120" height="40" as="geometry" />
        </mxCell>
        <mxCell id="3EE64F8RbACrC_pB3BYP-46" value="1.20X1.10m" style="shape=dimension;whiteSpace=wrap;html=1;align=center;points=[];verticalAlign=bottom;spacingBottom=3;labelBackgroundColor=none;fontSize=14;" vertex="1" parent="1">
          <mxGeometry x="80" y="505" width="120" height="40" as="geometry" />
        </mxCell>
      </root>
    </mxGraphModel>
  </diagram>
</mxfile>
